<svg xmlns="http://www.w3.org/2000/svg" width="1200" height="675" viewBox="0 0 1200 675" role="img" aria-label="Pravidlo, integrace, nebo AI?"><defs><linearGradient id="bg" x2="1" y2="1"><stop stop-color="#091726"/><stop offset="1" stop-color="#123147"/></linearGradient><marker id="arrow" viewBox="0 0 10 10" refX="9" refY="5" markerWidth="8" markerHeight="8" orient="auto"><path d="M0 1L9 5L0 9" fill="none" stroke="#67d5f5" stroke-width="2"/></marker></defs><rect width="1200" height="675" fill="url(#bg)"/><rect x="44" y="40" width="1112" height="595" rx="28" fill="#11263a" stroke="#2f5068"/><text x="78" y="98" fill="#67d5f5" font-size="20" font-family="Arial,sans-serif" font-weight="bold">PROCELYX · MAPA PROCESU</text><text x="78" y="159" fill="#f3f8ff" font-size="38" font-family="Arial,sans-serif" font-weight="bold">Pravidlo, integrace, nebo AI?</text><text x="78" y="196" fill="#a7c2d5" font-size="21" font-family="Arial,sans-serif">Začněte typem vstupu a rizikem rozhodnutí.</text><rect x="435" y="224" width="330" height="75" rx="18" fill="#26556f" stroke="#67d5f5"/><text x="477" y="272" fill="white" font-family="Arial" font-size="25" font-weight="bold">Jaká data přicházejí?</text><path d="M480 300L285 375M720 300L915 375" stroke="#67d5f5" stroke-width="4" fill="none" marker-end="url(#arrow)"/><text x="150" y="360" fill="#9dd3e4" font-family="Arial" font-size="19">Strukturovaná</text><rect x="824" y="327" width="300" height="34" rx="8" fill="#11263a"/><text x="842" y="352" fill="#9dd3e4" font-family="Arial" font-size="19">E-mail, PDF, volný text</text><rect x="92" y="390" width="380" height="116" rx="18" fill="#166f74"/><text x="130" y="438" fill="white" font-family="Arial" font-size="27" font-weight="bold">Pravidlo nebo integrace</text><text x="130" y="475" fill="#d3f5f0" font-family="Arial" font-size="19">Přenos jasně daných údajů</text><rect x="728" y="390" width="380" height="116" rx="18" fill="#5a4d87"/><text x="765" y="438" fill="white" font-family="Arial" font-size="27" font-weight="bold">AI připraví návrh</text><text x="765" y="475" fill="#e6ddff" font-family="Arial" font-size="19">Čtení různých podkladů</text><path d="M920 510V545" stroke="#67d5f5" stroke-width="3" marker-end="url(#arrow)"/><rect x="750" y="555" width="355" height="55" rx="14" fill="#a05a35"/><text x="783" y="592" fill="white" font-family="Arial" font-size="24" font-weight="bold">Člověk potvrdí výsledek</text></svg>